<?xml version="1.0" encoding="iso-8859-1"?>
<!DOCTYPE svg PUBLIC "-//W3C//DTD SVG 1.1//EN" "http://www.w3.org/Graphics/SVG/1.1/DTD/svg11.dtd">

<svg id="gd-logo" xmlns="http://www.w3.org/2000/svg" xmlns:xlink="http://www.w3.org/1999/xlink" x="0px" y="0px"
	 width="210px" height="210px" viewBox="0 0 210 210" >
    <g>
        <circle style="fill:#010101;" cx="104.959" cy="104.959" r="104.959"/>
        <path style="fill:#2A398A;" d="M142.022,19.218l-7.976,14.775l18.219-3.412l-25.704,21.132l23.186,3.023L119.95,74.296
            l26.784-0.327l-33.278,20.717l24.738,0.624l-35.055,17.444l11.623,2.695l-23.19,10.267l6.167,3.173l-26.004,9.797
            c10.04,5.657,21.629,8.89,33.976,8.89c38.28,0,69.311-31.032,69.311-69.312C175.021,53.299,161.821,31.421,142.022,19.218z
             M85.423,205.257C38.342,196.14,2.787,154.704,2.787,104.959c0-43.799,27.563-81.155,66.288-95.685
            c-24.67,13.127-41.468,39.094-41.468,68.989c0,0-1.019,23.157,3.484,37.149c4.503,13.99,4.503,17.636,4.503,20.638
            c0,3.538-1.715,10.828,1.394,15.653c3.109,4.823,5.789,7.504,11.471,9.756c-0.964,4.288,0.61,15.669,13.187,17.368
            c3.966,0.535,8.47,0.535,9.864,0.535c0.75,2.574,2.251,10.722,4.502,13.616c0.107,2.359-1.179,7.935,7.72,8.576
            C84.368,202.758,84.821,204.053,85.423,205.257z"/>
        <path style="fill:#B82025;" d="M83.061,108.737L65.1,109.693l22.365-19.49l-22.184,1.535l34.5-25.105l-24.626,1.123l39.44-21.269
            l-20.847-3.867l29.286-13.107l-8.805-1.761l23.884-10.771c-9.671-5.125-20.696-8.03-32.403-8.03
            c-38.28,0-69.312,31.032-69.312,69.312c0,24.338,12.546,45.742,31.522,58.109L83.061,108.737z M146.183,11.452
            c22.56,13.695,37.63,38.493,37.63,66.811c0,10.335-2.013,20.2-5.659,29.23c-0.12,0.323-0.25,0.656-0.397,1.003
            c-6.971,16.297-8.47,21.442-9.328,27.125c-0.858,5.682,0.751,11.686-1.179,16.295c-1.932,4.61-6.54,7.184-11.044,7.827
            c-1.286,12.544-3.109,17.368-7.075,20.478c-3.968,3.109-12.864,2.146-14.688,1.822c-0.322,1.609-1.822,4.718-4.396,8.899
            c0,10.827-3.753,10.612-5.789,11.899c-0.4,1-0.92,1.939-1.414,2.726c47.899-8.458,84.287-50.282,84.287-100.608
            C207.131,63.201,182.077,27.3,146.183,11.452z"/>
        <path style="fill:#FFFFFF;" d="M175.147,108.552c0.011,0.009,0.025,0.017,0.034,0.025c-1.688,3.538-4.584,9.649-6.271,14.795
            c-1.689,5.146-3.78,11.498-3.458,18.173c0.323,6.674-0.723,8.684-2.413,11.096c-1.687,2.412-4.663,2.733-5.387,2.813
            c-0.723,0.08,1.127-1.285,3.941-4.02c2.812-2.733,2.653-6.11,2.491-8.443c-0.16-2.331-0.643-7.799,0-10.212
            c-0.723,0.564-2.171,2.896-1.768,6.514c0.85,7.643-0.242,9.087-1.448,10.854c-1.207,1.769-4.181,2.896-4.664,2.654
            c-0.482-0.242,1.366-1.367,3.138-3.539c1.768-2.171,1.929-7.074,1.929-10.373c0-3.296,0.482-6.592,1.849-9.487
            c1.367-2.894,4.665-10.212,4.665-10.212c-4.262,8.04-8.766,15.439-8.926,21.631c-0.161,6.191-1.528,8.604-5.065,11.176
            c-3.539,2.573-9.73-0.081-13.509-1.526c-3.78-1.448-12.062-1.127-17.771,0.4c-5.709,1.528-11.337,5.95-10.775,8.846
            c0.564,2.895,9.891,2.331,17.449,1.527c7.558-0.803,19.539-2.171,22.354-2.332c-0.16,1.77-2.975,1.85-4.664,2.09
            c-1.688,0.242-4.422,0.966-5.548,1.126c0.081,1.046,1.206,1.207,2.814,1.851s1.126,4.342-0.161,9.005
            c-1.286,4.664-5.226,5.066-8.925,5.227c-3.699,0.162-4.503-0.884-6.191-0.805c-1.527,1.448-6.995,3.94-9.81,5.308
            c1.286,0.402,3.457,0,5.307,0c1.849,0,1.849,1.366,1.93,2.976c0.08,1.608-0.241,2.091-0.885,2.091c0,1.044-1.045,2.733-1.85,2.733
            s-0.562-2.011-1.045-2.011s-1.046,1.448-1.607,2.493c-0.563,1.046-3.539,3.699-4.183,4.182c-0.643,0.481-1.205-0.884-2.491-0.563
            c-1.287,0.322-1.609,2.492-2.654,2.492c-1.046,0-1.931-1.929-3.778-1.929c-1.85,0-3.217,2.171-3.78,2.171
            c-0.563,0-1.045-0.322-1.608-1.529c-0.562-1.205-1.286-1.525-2.01-1.525c-0.724,0-1.367,0.643-1.93,0.643
            c-0.562,0-0.884-1.769-3.136-1.85c-2.252-0.081-3.458,1.85-4.664,1.77c-1.206-0.081-2.01-3.057-2.813-5.388
            c-0.805-2.332-1.93-6.271-1.85-8.766c-6.271,0.161-9.086-1.929-10.373-3.778c-5.226-0.241-7.478-3.056-7.397-6.915
            s4.262-4.342,6.352-4.342c-0.965-0.161-1.688-0.884-1.688-2.091c0-1.206,2.493-1.688,2.493-1.688s10.694,0.16,13.348,0.16
            c2.654,0,4.825-1.046,5.87-1.527c0.562,0.724,0.402,2.492,0.805,3.538c0.401,1.045,0.401,2.895,0,4.102
            c1.125,0.08,1.768,0.24,2.331-0.242c0.563-0.482-0.08-2.09-0.16-3.055c-0.081-0.966,0.964-2.171,1.045-3.941
            c0.081-1.768-2.734-3.697-8.041-6.19c-5.308-2.493-6.755-3.779-13.911-4.584c-7.157-0.804-12.463,0-15.76-0.4
            c-3.297-0.403-9.408-8.042-9.891-9.891c-0.482-1.85,1.77-7.961,1.528-10.212c-0.128-1.203-0.899-3.711-1.589-5.789
            c10.608,12.723,25.565,21.689,42.589,24.617h0.001c0,0,0.007,0.002,0.014,0.002c0.173,0.029,0.347,0.054,0.521,0.083
            c1.624,0.276,6.493,1.252,7.916,3.252c1.715,2.413,1.394,6.272,1.984,6.272c0.589,0,0.349-4.262,2.787-6.701
            c1.365-1.365,4.308-1.938,7.195-2.353c1.028-0.12,2.051-0.262,3.066-0.424c0.69-0.101,1.337-0.205,1.908-0.329
            c0.011-0.002,0.02-0.005,0.029-0.007c22.901-4.314,41.932-19.593,51.436-40.173c4.191-9.075,6.535-19.18,6.535-29.833
            c0-39.346-31.896-71.241-71.242-71.241c-39.345,0-71.241,31.896-71.241,71.241c0,2.15,0.101,4.276,0.287,6.378l0.008,0.135
            c0.984,7.5,3.221,20.324,9.268,29.162c0,0,7.239,9.878,6.799,16.53c-0.441,6.653-3.014,6.011-3.014,10.405s2.198,5.093,5.039,7.933
            c0,0-7.612-2.356-6.969-7.933c0.643-5.574,3.216-5.146,3.001-10.613c-0.214-5.468-4.716-10.936-7.076-15.117
            c-1.805-3.075-6.369-11.06-8.62-22.955c-0.02,0.147-0.039,0.295-0.064,0.441c1.608,12.758,5.576,21.334,7.184,23.908
            s4.824,6.647,5.36,12.759c0.536,6.11-2.573,6.969-2.359,13.508c0.214,6.54,8.577,12.65,8.577,12.65
            c-7.076-1.822-9.756-6.968-9.863-12.972c-0.107-6.003,4.181-10.078-4.396-25.73s-7.679-38.985-7.679-38.985s0.013-0.04,0.021-0.126
            c0.334-41.545,34.112-75.122,75.736-75.122c41.833,0,75.745,33.912,75.745,75.745C181.454,89.033,179.201,99.275,175.147,108.552z
             M38.489,127.151c1.688,4.261,1.447,9.569,0.562,13.509c-0.884,3.939-1.448,7.559,1.688,11.739
            c3.136,4.182,7.96,6.191,11.177,4.744c-2.251-0.402-4.664,0-9.086-5.228c-4.422-5.226-2.412-11.014-1.929-18.172
            c0.482-7.155-4.422-14.07-4.422-14.07C36.479,120.799,36.8,122.89,38.489,127.151z M54.73,160.386c0,0.751,0.322,1.448,1.448,1.448
            c1.126,0,1.769-1.02,1.769-1.716s-0.589-1.232-1.822-1.232C55.213,158.886,54.73,159.636,54.73,160.386z M60.091,161.565
            c-0.429,0.805,0.268,1.555,1.286,1.555c1.019,0,1.608-0.75,1.608-1.286c0-0.537-0.433-1.393-1.5-1.286
            C60.949,160.602,60.521,160.762,60.091,161.565z M65.184,161.673c-0.482,0.321-1.554,0.751-0.696,1.822
            c0.857,1.072,1.93,0.108,2.251-0.643c0.322-0.751,0.413-1.248,0.107-1.555C66.685,161.137,65.666,161.352,65.184,161.673z
             M68.4,163.228c0,0.591,0.644,1.126,1.34,1.072c0.697-0.055,0.911-0.75,0.858-1.339c-0.054-0.591-0.375-1.18-1.073-1.18
            C68.99,161.781,68.4,162.639,68.4,163.228z M53.176,167.677c-0.161,1.93,1.34,4.557,2.198,5.575
            c0.857,1.019,2.626,1.983,2.895,1.715c0.268-0.269-0.429-1.286-1.18-2.519c-0.75-1.233-1.233-3.593-1.179-4.557
            c0.054-0.965-0.229-2.131-1.287-2.306C54.302,165.532,53.337,165.747,53.176,167.677z M59.716,171.375
            c0.697,1.823,3.484,4.183,3.913,3.807c0.428-0.376-2.466-3.912-2.68-5.199s0.054-3.163-0.697-3.163
            C58.965,166.819,59.02,169.553,59.716,171.375z M64.219,171.482c0.322,0.859,1.983,2.788,2.358,2.521
            c0.375-0.269-0.322-1.448-0.75-2.252s-0.268-2.467-0.161-3.271c0.107-0.804-0.214-1.684-1.072-1.715
            C63.147,166.712,63.897,170.626,64.219,171.482z M75.53,183.33c-0.054,1.769,1.126,6.217,1.93,6.217
            c0.804,0,0.537-6.11,0.537-6.914s-0.441-1.669-1.448-1.822C75.852,180.702,75.583,181.561,75.53,183.33z M81.534,186.117
            c-2.037,2.143-2.412,5.844-2.412,7.559c0,1.716,0.161,3.967,1.662,4.128c1.5,0.161,1.716-2.198,1.608-3.914
            c-0.108-1.715-0.269-4.824-0.269-6.485c0.269,0.589,1.287,3.859,2.037,3.859c0.751,0,0.215-4.933-0.106-5.95
            c-0.321-1.019-1.339-3.163-2.359-3.163C80.301,182.15,80.998,184.509,81.534,186.117z M85.715,197.428
            c0.107,2.787,1.501,7.451,2.144,7.397c0.643-0.053,1.34-5.36,1.34-7.183c0-1.824-1.18-5.682-2.145-5.682
            C86.09,191.961,85.607,194.641,85.715,197.428z M91.558,198.285c-0.375,1.073-0.482,4.129-0.429,5.094
            c0.055,0.965,1.073,2.572,1.877,2.626c0.803,0.054,2.465-2.733,2.519-3.699c0.054-0.964,0.268-3.108,0.268-4.502
            s-0.539-2.156-1.5-2.252C93.219,195.445,91.933,197.214,91.558,198.285z M98.366,198.446c-0.535,0.858-0.858,3.538-0.75,5.254
            c0.107,1.717,2.198,2.947,3.377,3.109c1.179,0.16,1.125-5.199,1.072-6.755c-0.053-1.554-0.589-2.895-1.876-2.895
            C99.438,197.16,98.901,197.59,98.366,198.446z M104.959,200.108c-0.429,1.019-0.161,3.271-0.053,4.448
            c0.106,1.18,0.911,1.984,2.573,2.038c1.662,0.054,3.055-1.931,3.108-2.467c0.053-0.535-0.054-2.84-0.054-3.645
            c0-0.804-1.772-3.688-2.841-3.592C106.514,196.998,105.388,199.089,104.959,200.108z M112.304,204.29
            c0.16,0.965,1.606,2.091,2.091,2.145c0.482,0.053,1.714-0.216,1.929-1.127s0-3.162,0-3.162c-0.106-2.412-1.018-5.521-2.09-5.521
            C112.679,196.624,112.143,203.325,112.304,204.29z M119.485,195.605c-0.803,1.608-0.911,5.575-0.911,6.541
            c0,0.964,0.804,2.572,1.662,2.572c0.857,0,1.983-7.184,2.037-8.416c0.054-1.233-0.106-3.538-0.698-3.538
            C120.934,192.765,120.289,193.997,119.485,195.605z M123.989,196.142c-0.107,1.341,0.161,3.056,0.804,3.056
            c0.644,0,1.126-1.232,1.876-2.359c0.751-1.125,0.536-2.786,0.536-3.966s-0.054-3.546-0.696-3.485
            C125.382,189.495,124.096,194.801,123.989,196.142z M129.081,187.673c0.376-0.055,1.286-2.521,1.716-3.271
            c0.428-0.75,1.501-2.627,1.394-3.003c-0.107-0.374-2.442-0.266-2.733,0.056C128.921,182.043,128.707,187.726,129.081,187.673z
             M146.342,170.572c-0.696,2.145-1.607,6.968-0.644,6.914c0.966-0.054,2.682-4.181,3.324-6.486c0.644-2.305,0.536-6.331,0-6.271
            C148.058,164.836,147.039,168.429,146.342,170.572z M151.382,164.567c0,0-1.663,9.918-0.911,9.864
            c0.75-0.054,1.982-3.109,2.358-5.308c0.375-2.197,0.428-4.879,0.428-5.735C152.668,163.336,151.597,164.031,151.382,164.567z
             M99.719,168.803c-0.885-1.126-1.287,0.321-1.287,1.166s-0.442,2.653-0.763,4.864c-0.322,2.211-1.247,4.783-1.126,5.468
            c0.121,0.684,2.171,4.101,3.699,5.428c1.528,1.326,2.392-8.156,1.729-11.056C101.327,171.858,100.604,169.928,99.719,168.803z
             M107.801,172.381c0.121-1.125,0.924-2.975,0.241-3.136c-0.685-0.16-2.814,2.412-3.619,5.548s-0.483,5.829-0.241,7.357
            c0.241,1.527,1.166,3.176,1.809,3.337c0.644,0.161,2.613-1.286,3.217-1.729c0.602-0.442,1.125-1.046,1.125-1.85
            s-1.69-3.729-2.372-6.231C107.72,174.793,107.68,173.507,107.801,172.381z M95.579,113.643l32.324-16.082l-23.158-0.482
            l32.806-20.423l-26.373,0.321l31.358-20.584l-22.192-2.895l22.676-18.655l-13.831,2.734l9.811-18.172l-16.403,7.397l8.845,1.769
            l-29.108,13.026l19.941,3.699L85.929,64.754l22.353-1.125L74.029,88.556l20.906-1.448l-22.514,19.62l15.117-0.804l-16.565,30.233
            c0,0,17.047-6.593,20.262-7.718l-5.628-2.896l21.066-9.327L95.579,113.643z"/>
    </g>
</svg>
